<?xml version="1.0" encoding="iso-8859-1"?>
<!-- Generator: Adobe Illustrator 19.0.0, SVG Export Plug-In . SVG Version: 6.00 Build 0)  -->
<svg version="1.1" id="Capa_1" xmlns="http://www.w3.org/2000/svg" xmlns:xlink="http://www.w3.org/1999/xlink" x="0px" y="0px"
	 viewBox="0 0 512 512" style="enable-background:new 0 0 512 512;" xml:space="preserve">
<path style="fill:#B9CCD3;" d="M471.1,23.893H172.757c-2.75,0-5,2.25-5,5v150.38c18.046,12.681,29.873,33.64,29.873,57.322v13.879
	c0,0.8-0.65,1.45-1.448,1.45h-5.411c-0.552,0-1,0.448-1,1s0.448,1,1,1c7.72,0,14,6.28,14,14v5.469c0,2.432-0.626,4.719-1.72,6.714
	H476.1V28.893C476.1,26.143,473.85,23.893,471.1,23.893z"/>
<path style="fill:#92DEEE;" d="M448.56,46.432H195.297c-2.75,0-5,2.25-5,5v154.015c4.684,9.389,7.333,19.962,7.333,31.148v13.879
	c0,0.8-0.65,1.45-1.448,1.45h-5.411c-0.175,0-0.331,0.057-0.474,0.136v1.729c0.143,0.079,0.299,0.136,0.474,0.136
	c7.72,0,14,6.28,14,14v5.469c0,2.432-0.626,4.719-1.72,6.714h250.51V51.432C453.56,48.682,451.31,46.432,448.56,46.432z"/>
<path style="opacity:0.1;fill:#15004D;enable-background:new    ;" d="M195.297,142.001c-2.75,0-5-2.25-5-5v65.064
	c2.508-1.078,5.266-1.686,8.171-1.686c3.556,0,6.902,0.896,9.829,2.47v-60.848H195.297z"/>
<g>
	<path style="fill:#89C947;" d="M453.56,280.107v-76.045c-2.067-1.05-4.398-1.655-6.875-1.655c-6.501,0-12.035,4.086-14.213,9.824
		c-3.345-7.002-10.473-11.852-18.751-11.852c-11.484,0-20.793,9.31-20.793,20.793c0,1.026,0.099,2.028,0.243,3.015
		c-2.399-1.582-5.269-2.508-8.357-2.508c-8.403,0-15.214,6.812-15.214,15.214c0,1.066,0.112,2.106,0.32,3.11
		c-0.441-0.038-0.884-0.067-1.335-0.067c-8.403,0-15.214,6.811-15.214,15.214c0,0.785,0.078,1.551,0.193,2.305
		c-3.684-3.314-8.541-5.348-13.886-5.348c-11.483,0-20.793,9.31-20.793,20.793c0,2.536,0.464,4.96,1.296,7.207L453.56,280.107
		L453.56,280.107z"/>
	<path style="fill:#89C947;" d="M272.51,252.107c-5.345,0-10.202,2.034-13.886,5.348c0.115-0.754,0.193-1.52,0.193-2.305
		c0-8.403-6.811-15.214-15.214-15.214c-0.451,0-0.894,0.029-1.334,0.067c0.209-1.004,0.32-2.044,0.32-3.11
		c0-8.402-6.812-15.214-15.214-15.214c-3.088,0-5.957,0.927-8.357,2.508c0.144-0.987,0.243-1.989,0.243-3.015
		c0-11.483-9.309-20.793-20.792-20.793c-2.905,0-5.663,0.608-8.171,1.686v3.382c4.684,9.389,7.333,19.962,7.333,31.148v13.879
		c0,0.8-0.65,1.45-1.448,1.45h-5.411c-0.175,0-0.331,0.057-0.474,0.136v1.729c0.143,0.079,0.299,0.136,0.474,0.136
		c7.72,0,14,6.28,14,14v5.469c0,2.432-0.626,4.719-1.72,6.714h88.956c0.832-2.247,1.296-4.671,1.296-7.207
		C293.303,261.417,283.994,252.107,272.51,252.107z"/>
</g>
<path style="fill:#90A7BB;" d="M490.372,278.993H203.594c-2.165,4.939-7.095,8.4-12.823,8.4h-7.912
	c-0.487,0-0.903,0.351-0.985,0.831c-1.439,8.36-4.615,16.018-9.103,22.639h317.601c2.75,0,5-2.25,5-5v-21.87
	C495.372,281.243,493.122,278.993,490.372,278.993z"/>
<g>
	<path style="fill:#D48748;" d="M424.544,436.751c-2.333,0.388-4.725,0.6-7.167,0.6h-49.505c-2.967,0-5.958-0.32-8.9-0.932h-1.494
		l-0.173,0.608c-2.05,7.187-8.696,12.206-16.164,12.206c-9.275,0-16.822-7.546-16.822-16.822v-52.475
		c0-16.181,8.876-30.319,22.01-37.828c-6.017-3.029-12.808-4.746-20.003-4.746h-110.89c-12.954,0-24.611,5.533-32.752,14.358
		c0.677,2.009,1.263,4.059,1.726,6.156l4.733-1.841c2.563-0.997,4.66,0.437,4.66,3.187v19.311h5.896
		c2.611,0,4.958,1.112,6.609,2.882c30.576,1.513,31.903,27.805,31.903,27.805v18.289h17.419c7.622,0,14.193,4.428,17.332,10.842
		h20.82c1,15.48,13.905,27.771,29.633,27.771h98.018c8.203,0,14.852-6.65,14.852-14.852
		C436.285,444.136,431.252,438.181,424.544,436.751z"/>
	<path style="fill:#D48748;" d="M255.63,427.509h-17.419V409.22c0,0-1.327-26.292-31.903-27.805c1.509,1.617,2.44,3.781,2.44,6.167
		c0,3.266,0,27.571,0,30.837c0,4.997-4.051,9.048-9.049,9.048l-5.896,0.001v1.196c0,2.75-2.049,5.928-4.555,7.063l-4.045,1.832
		h22.867c10.271,0,18.598,8.327,18.598,18.598c0,3.67-1.078,7.082-2.913,9.964c14.492,0,31.875,0,31.875,0
		c10.663,0,19.306-8.644,19.306-19.307C274.936,436.152,266.292,427.509,255.63,427.509z"/>
	<path style="fill:#D48748;" d="M467,436.419h-23.762c-8.202,0-14.852,6.649-14.852,14.851c0,8.202,6.649,14.852,14.852,14.852
		h8.911c8.202,0,14.852-6.65,14.852-14.852C467,450.921,467,436.419,467,436.419z"/>
</g>
<g>
	<path style="fill:#FCDB80;" d="M31.265,459.755H7.5c-4.142,0-7.5,3.358-7.5,7.5s3.358,7.5,7.5,7.5h42.008
		C40.468,474.755,32.941,468.304,31.265,459.755z"/>
	<path style="fill:#FCDB80;" d="M504.5,459.755H226.312c-1.677,8.548-9.203,15-18.243,15H504.5c4.142,0,7.5-3.358,7.5-7.5
		S508.642,459.755,504.5,459.755z"/>
</g>
<path style="fill:#D48748;" d="M417.377,335.382h-49.505c-24.607,0-44.554,19.947-44.554,44.554v1.98
	c0-9.842,7.979-17.822,17.822-17.822c9.842,0,17.821,7.98,17.821,17.822v50.495c0,1.698-0.252,3.335-0.696,4.891
	c3.095,0.68,6.307,1.05,9.607,1.05h49.505c2.56,0,5.065-0.228,7.506-0.642c-6.413-3.56-10.767-10.396-10.767-18.236v-6.798
	c0-11.496,9.352-20.849,20.848-20.849h24.277c0.913,0,1.807,0.079,2.689,0.194v-12.085
	C461.931,355.329,441.984,335.382,417.377,335.382z"/>
<g style="opacity:0.1;">
	<path d="M341.141,364.094c0.383,0,0.757,0.034,1.134,0.057c6.373-16.813,22.62-28.769,41.667-28.769h-16.069
		c-24.607,0-44.554,19.947-44.554,44.554v1.98C323.319,372.073,331.298,364.094,341.141,364.094z"/>
</g>
<path style="fill:#FFD5B3;" d="M481.09,419.473c0,12.066-9.781,21.848-21.848,21.848h-24.277c-12.066,0-21.848-9.782-21.848-21.848
	v-6.798c0-12.066,9.782-21.849,21.848-21.849h24.277c12.067,0,21.848,9.783,21.848,21.849V419.473z"/>
<g>
	<path style="fill:#A75436;" d="M457.977,403.239c0,2.75-2.25,5-5,5H441.23c-2.75,0-5-2.25-5-5v-7.412c0-2.75,2.25-5,5-5h11.747
		c2.75,0,5,2.25,5,5L457.977,403.239L457.977,403.239z"/>
	<path style="fill:#A75436;" d="M402.527,378.525h-7.921c-4.142,0-7.5-3.358-7.5-7.5s3.358-7.5,7.5-7.5h7.921
		c4.142,0,7.5,3.358,7.5,7.5S406.669,378.525,402.527,378.525z"/>
	<path style="fill:#A75436;" d="M449.421,378.525H441.5c-4.142,0-7.5-3.358-7.5-7.5s3.358-7.5,7.5-7.5h7.921
		c4.142,0,7.5,3.358,7.5,7.5S453.563,378.525,449.421,378.525z"/>
	<path style="fill:#A75436;" d="M358.962,432.41c0,9.843-7.979,17.822-17.821,17.822l0,0c-9.843,0-17.822-7.979-17.822-17.822
		v-50.495c0-9.842,7.979-17.822,17.822-17.822l0,0c9.842,0,17.821,7.98,17.821,17.822L358.962,432.41L358.962,432.41z"/>
</g>
<path style="opacity:0.1;fill:#15004D;enable-background:new    ;" d="M338,432.41v-50.495c0-7.222,4.305-13.427,10.481-16.227
	c-2.24-1.016-4.72-1.595-7.34-1.595c-9.843,0-17.822,7.98-17.822,17.822v50.495c0,9.843,7.979,17.822,17.822,17.822
	c2.62,0,5.1-0.58,7.34-1.595C342.305,445.838,338,439.633,338,432.41z"/>
<path style="fill:#FFC12E;" d="M121.308,380.191c1.281,0.499,2.971,0.748,4.66,0.748l0,0c1.689,0,3.378-0.249,4.66-0.748
	l54.047-21.028c-2.92-14.767-11.271-27.606-22.899-36.314c-9.776,8.067-22.241,12.915-35.808,12.915s-26.032-4.848-35.808-12.915
	c-11.628,8.708-19.979,21.546-22.899,36.314L121.308,380.191z"/>
<path style="opacity:0.1;fill:#15004D;enable-background:new    ;" d="M87.141,366.897c0.9-13.917,6.569-26.55,15.399-36.276
	c-4.463-2.056-8.623-4.671-12.38-7.772c-11.628,8.708-19.979,21.546-22.899,36.314L87.141,366.897z"/>
<g>
	<path style="fill:#FFB98A;" d="M190.771,252.924h-8.036v25.373c0,3.445-0.318,6.816-0.895,10.096h8.931c8.25,0,15-6.75,15-15
		v-5.469C205.771,259.674,199.021,252.924,190.771,252.924z"/>
	<path style="fill:#FFB98A;" d="M69.2,278.298v-25.373h-8.035c-8.25,0-15,6.75-15,15v5.469c0,8.25,6.75,15,15,15h8.93
		C69.518,285.113,69.2,281.743,69.2,278.298z"/>
</g>
<path style="fill:#FFD5B3;" d="M165.02,251.924c-0.507,0-0.984-0.27-1.244-0.705l-9.088-15.162
	c-0.472-0.789-1.336-1.279-2.257-1.279c-0.932,0.003-1.799,0.499-2.268,1.294l-8.948,15.138c-0.26,0.44-0.738,0.713-1.248,0.713
	H68.2v26.373c0,32.29,25.864,58.466,57.768,58.466s57.768-26.176,57.768-58.466v-26.373H165.02V251.924z"/>
<path style="opacity:0.1;fill:#15004D;enable-background:new    ;" d="M89,278.298v-26.373H68.2v26.373
	c0,32.29,25.864,58.466,57.768,58.466c3.553,0,7.025-0.342,10.4-0.963C109.431,330.841,89,306.992,89,278.298z"/>
<g>
	<path style="fill:#A75436;" d="M129.802,294.378h-4.428c-5.922,0-10.741-4.835-10.741-10.778v-10.178c0-4.142,3.358-7.5,7.5-7.5
		s7.5,3.358,7.5,7.5v5.956h0.169c4.142,0,7.5,3.358,7.5,7.5S133.944,294.378,129.802,294.378z"/>
	<path style="fill:#A75436;" d="M99.104,285.436c-4.142,0-7.5-3.358-7.5-7.5v-7.647c0-4.142,3.358-7.5,7.5-7.5s7.5,3.358,7.5,7.5
		v7.647C106.604,282.078,103.247,285.436,99.104,285.436z"/>
	<path style="fill:#A75436;" d="M152.831,285.436c-4.142,0-7.5-3.358-7.5-7.5v-7.647c0-4.142,3.358-7.5,7.5-7.5s7.5,3.358,7.5,7.5
		v7.647C160.331,282.078,156.973,285.436,152.831,285.436z"/>
	<path style="fill:#A75436;" d="M137.632,318.907h-23.329c-4.142,0-7.5-3.358-7.5-7.5s3.358-7.5,7.5-7.5h23.329
		c4.142,0,7.5,3.358,7.5,7.5S141.774,318.907,137.632,318.907z"/>
</g>
<path style="fill:#F7931E;" d="M165.02,252.924c-0.861,0-1.659-0.452-2.102-1.191l-9.088-15.162
	c-0.293-0.489-0.829-0.793-1.399-0.793c-0.579,0.002-1.116,0.309-1.407,0.802l-8.948,15.139c-0.441,0.747-1.243,1.204-2.109,1.204
	H55.754c-1.353,0-2.45-1.098-2.45-2.45v-13.879c0-39.166,31.864-71.031,71.03-71.031h3.267c39.166,0,71.03,31.864,71.03,71.031
	v13.879c0,1.352-1.096,2.45-2.448,2.45H165.02V252.924z"/>
<g style="opacity:0.1;">
	<path d="M74,250.474v-13.879c0-36.214,27.248-66.165,62.315-70.477c-2.859-0.352-5.763-0.554-8.715-0.554h-3.267
		c-39.166,0-71.03,31.864-71.03,71.031v13.879c0,1.352,1.097,2.45,2.45,2.45H76.45C75.097,252.924,74,251.826,74,250.474z"/>
</g>
<path style="fill:#0481BF;" d="M192.324,426.469c-4.438-0.001-8.049-3.612-8.049-8.049c0-2.813,1.439-5.377,3.851-6.857
	c0.296-0.182,0.477-0.504,0.477-0.852s-0.181-0.67-0.477-0.852c-2.411-1.481-3.851-4.044-3.851-6.857
	c0.001-2.814,1.44-5.376,3.85-6.855c0.296-0.182,0.477-0.505,0.477-0.853s-0.181-0.67-0.477-0.852
	c-2.411-1.48-3.85-4.044-3.851-6.858c0.001-4.438,3.611-8.049,8.05-8.049h1.478v-20.311c0-2.75-2.097-4.184-4.66-3.187
	l-58.516,22.767c-1.281,0.499-2.971,0.748-4.66,0.748v49.601c0.78,0.984,1.397,2.118,1.791,3.375l0.954,3.043l0.954-3.043
	c1.372-4.377,5.377-7.316,9.967-7.316c5.176,0,9.617,3.866,10.331,8.994l0.12,0.862H165.2c1.731,0,3.254,1.126,3.79,2.801
	l0.223,0.695h13.783l6.253-2.832c2.505-1.135,4.555-4.313,4.555-7.063v-2.196h-1.48V426.469z"/>
<path style="fill:#046699;" d="M121.308,378.801l-58.515-22.767c-2.563-0.997-4.66,0.437-4.66,3.187v20.311h1.477
	c4.438,0,8.049,3.611,8.05,8.049c-0.001,2.814-1.44,5.378-3.851,6.858c-0.296,0.182-0.477,0.504-0.477,0.852s0.181,0.67,0.477,0.853
	c2.41,1.479,3.85,4.042,3.85,6.855c-0.001,2.813-1.44,5.376-3.851,6.857c-0.296,0.182-0.477,0.504-0.477,0.852
	s0.181,0.67,0.477,0.852c2.411,1.48,3.851,4.044,3.851,6.857c0,4.438-3.611,8.048-8.049,8.049h-1.477v2.196
	c0,2.75,2.049,5.928,4.555,7.063l6.252,2.832h19.273l0.223-0.695c0.536-1.676,2.059-2.801,3.79-2.801h15.114l0.12-0.862
	c0.714-5.127,5.156-8.994,10.332-8.994c3.272,0,6.24,1.499,8.176,3.942v-49.6C124.278,379.549,122.589,379.3,121.308,378.801z"/>
<path style="opacity:0.1;fill:#15004D;enable-background:new    ;" d="M83.555,435.727C81.05,434.592,79,431.414,79,428.664V362.34
	l-16.207-6.306c-2.563-0.997-4.66,0.437-4.66,3.187v20.311h1.477c4.438,0,8.049,3.611,8.05,8.049
	c-0.001,2.814-1.44,5.378-3.851,6.858c-0.296,0.182-0.477,0.504-0.477,0.852s0.181,0.67,0.477,0.853
	c2.41,1.479,3.85,4.042,3.85,6.855c-0.001,2.813-1.44,5.376-3.851,6.857c-0.296,0.182-0.477,0.504-0.477,0.852
	s0.181,0.67,0.477,0.852c2.411,1.48,3.851,4.044,3.851,6.857c0,4.438-3.611,8.048-8.049,8.049h-1.477v2.196
	c0,2.75,2.049,5.928,4.555,7.063l6.252,2.832h19.273l0.202-0.63L83.555,435.727z"/>
<g>
	<path style="fill:#FFD5B3;" d="M208.748,418.419c0-3.266,0-27.571,0-30.837c0-4.998-4.051-9.049-9.049-9.049h-7.374
		c-4.998,0-9.049,4.051-9.05,9.049c0.001,3.266,1.735,6.119,4.327,7.71c-2.592,1.59-4.327,4.443-4.327,7.708
		c0.001,3.265,1.735,6.117,4.328,7.709c-2.593,1.592-4.327,4.445-4.327,7.709c0,4.998,4.052,9.048,9.049,9.049l7.374-0.001
		C204.696,427.468,208.748,423.416,208.748,418.419z"/>
	<path style="fill:#FFD5B3;" d="M43.187,418.419c0-3.266-0.001-27.571,0-30.837c0-4.998,4.051-9.049,9.049-9.049h7.374
		c4.998,0,9.049,4.051,9.05,9.049c-0.001,3.266-1.735,6.119-4.327,7.71c2.592,1.59,4.327,4.443,4.327,7.708
		c-0.001,3.265-1.735,6.117-4.328,7.709c2.593,1.592,4.327,4.445,4.327,7.709c0,4.998-4.052,9.048-9.049,9.049l-7.374-0.001
		C47.238,427.468,43.187,423.416,43.187,418.419z"/>
	<path style="fill:#FFD5B3;" d="M91.434,437.559H49.508c-10.271,0-18.598,8.327-18.598,18.598s8.327,18.598,18.598,18.598h41.926
		V437.559z"/>
</g>
<path style="opacity:0.1;fill:#15004D;enable-background:new    ;" d="M51.516,456.157c0-10.271,8.327-18.598,18.598-18.598H49.508
	c-10.271,0-18.598,8.327-18.598,18.598s8.327,18.598,18.598,18.598h20.607C59.843,474.755,51.516,466.428,51.516,456.157z"/>
<path style="fill:#D4E9ED;" d="M108,434.063H92.226c-2.75,0-5,2.25-5,5v34.189c0,2.75,2.25,5,5,5H108V434.063z"/>
<path style="fill:#FFD5B3;" d="M208.069,437.559H166v37.196h42.069c10.271,0,18.598-8.327,18.598-18.598
	S218.341,437.559,208.069,437.559z"/>
<path style="fill:#D4E9ED;" d="M165.2,434.063H150v44.189h15.2c2.75,0,5-2.25,5-5v-34.189
	C170.2,436.313,167.95,434.063,165.2,434.063z"/>
<path style="fill:#154884;" d="M139.634,424.207c-5.126,0-9.465,3.371-10.921,8.017c-1.456-4.646-5.795-8.017-10.921-8.017
	c-6.321,0-11.445,5.124-11.445,11.445v41.01c0,6.321,5.124,11.445,11.445,11.445c5.126,0,9.464-3.371,10.921-8.017
	c1.457,4.646,5.795,8.017,10.921,8.017c6.321,0,11.445-5.124,11.445-11.445v-41.01C151.079,429.331,145.955,424.207,139.634,424.207
	z"/>
<path style="fill:#FFFFFF;" d="M448.56,46.432H195.297c-2.75,0-5,2.25-5,5V137c0,2.75,2.25,5,5,5H448.56c2.75,0,5-2.25,5-5V51.432
	C453.56,48.682,451.31,46.432,448.56,46.432z M435.528,118.969c0,2.75-2.25,5-5,5h-71.635v-16.566c0-2.789-2.282-5.071-5.071-5.071
	h-63.787c-2.79,0-5.071,2.282-5.071,5.071v16.566h-71.635c-2.75,0-5-2.25-5-5V69.465c0-2.75,2.25-5,5-5h217.2c2.75,0,5,2.25,5,5
	L435.528,118.969L435.528,118.969z"/>
<g>
</g>
<g>
</g>
<g>
</g>
<g>
</g>
<g>
</g>
<g>
</g>
<g>
</g>
<g>
</g>
<g>
</g>
<g>
</g>
<g>
</g>
<g>
</g>
<g>
</g>
<g>
</g>
<g>
</g>
</svg>
